<?xml version="1.0" encoding="UTF-8" standalone="no"?>
<!-- Created with Inkscape (http://www.inkscape.org/) -->

<svg
   inkscape:version="1.1.1 (3bf5ae0d25, 2021-09-20)"
   sodipodi:docname="tenmaklogo_3_sari.svg"
   viewBox="0 0 500 574"
   height="574"
   width="500"
   id="svg9"
   version="1.1"
   xmlns:inkscape="http://www.inkscape.org/namespaces/inkscape"
   xmlns:sodipodi="http://sodipodi.sourceforge.net/DTD/sodipodi-0.dtd"
   xmlns="http://www.w3.org/2000/svg"
   xmlns:svg="http://www.w3.org/2000/svg">
  <defs
     id="defs13">
    <clipPath
       clipPathUnits="userSpaceOnUse"
       id="clipPath1467">
      <rect
         style="fill:none;fill-rule:evenodd"
         id="rect1469"
         width="500.91965"
         height="456.92957"
         x="-1.419039"
         y="2.838063" />
    </clipPath>
    <clipPath
       clipPathUnits="userSpaceOnUse"
       id="clipPath1865">
      <rect
         style="fill:none"
         id="rect1867"
         width="500.19815"
         height="469.48993"
         x="527.29352"
         y="-100.23508" />
    </clipPath>
    <filter
       style="color-interpolation-filters:sRGB;"
       inkscape:label="Invert"
       id="filter1962"
       x="0"
       y="0"
       width="1"
       height="1">
      <feColorMatrix
         values="1 0 0 0 0 0 1 0 0 0 0 0 1 0 0 -0.21 -0.72 -0.07 2 0 "
         result="color2"
         id="feColorMatrix1960" />
    </filter>
    <clipPath
       clipPathUnits="userSpaceOnUse"
       id="clipPath1195">
      <rect
         id="rect1197"
         width="500.19739"
         height="469.59659"
         x="602.0459"
         y="-72.245514" />
    </clipPath>
    <clipPath
       clipPathUnits="userSpaceOnUse"
       id="clipPath1525">
      <g
         inkscape:label="Clip"
         id="use1527">
        <g
           id="g1597"
           clip-path="url(#clipPath1195)"
           transform="translate(-602.04592,74.25233)"
           style="fill:#ffd42a">
          <path
             id="path1595"
             style="fill:#ffd42a;stroke-width:1"
             d="M 1102.2433,-72.139146 V 214.86086 397.35109 h 0.1992 V -72.139146 Z m 0,469.490236 H 602.24337 v 104.50977 h 250 249.99993 z M 788.3547,-60.094224 c -7.4813,-0.339163 -14.79584,4.357392 -17.12305,13 -1.97268,7.325957 2.46931,16.502612 9.46289,19.548828 4.06162,1.769129 10.98743,1.748198 14.45118,-0.04297 10.26564,-5.308572 13.07017,-17.956894 5.81445,-26.220703 -3.56828,-4.064038 -8.11669,-6.081659 -12.60547,-6.285155 z m 130.38867,0.01172 c -7.01864,0 -14.03648,4.329033 -16.63086,12.988281 -3.88846,12.978534 10.51034,25.000948 23.46094,19.589843 7.23775,-3.024124 11.94667,-12.43402 9.80273,-19.589843 -2.59437,-8.659248 -9.61417,-12.988281 -16.63281,-12.988281 z m -65.45312,9.064452 c -8.67129,-0.134162 -17.06889,3.080685 -23.96875,9.46875 -3.68972,3.416025 -7.07464,7.741245 -8.78907,11.232422 -2.45678,5.00277 -2.78906,6.806849 -2.78906,15.177735 0,8.4506952 0.31211,10.1074932 2.81836,15.00000018 9.5938,18.72823082 29.65132,25.54434982 48.37891,16.44140582 26.4826,-12.8724268 26.47547,-50.386156 -0.0117,-63.425781 -5.13471,-2.527809 -10.4359,-3.814034 -15.63867,-3.894532 z M 751.134,-17.943834 c -1.92518,-0.06362 -3.83411,0.184973 -6.69922,0.712891 -8.29869,1.529094 -15.05474,5.135343 -20.31836,10.8457029 -17.64567,19.1432921 -9.92948,48.9562981 14.97265,57.8515571 5.86277,2.09424 17.18052,1.73089 23.86719,-0.76757 8.07992,-3.019039 17.12709,-12.118979 20.2207,-20.337893 3.02416,-8.034381 2.61033,-20.7041901 -0.89843,-27.5000001 -5.49822,-10.649033 -13.27377,-16.9236949 -24.35157,-19.6464849 -2.92649,-0.719298 -4.86779,-1.094587 -6.79296,-1.158203 z m 204.87109,0.111328 c -13.25074,-0.192504 -26.73553,8.0064479 -32.5957,20.5078129 -2.30113,4.908962 -2.66472,6.983133 -2.66407,15.1855471 8.8e-4,11.158115 1.81163,16.128049 8.53125,23.417964 8.13347,8.823779 15.28357,11.706849 27.9668,11.271489 7.41586,-0.25456 9.30069,-0.71985 14.76953,-3.64063 7.49074,-4.000649 12.53024,-9.308869 16.07424,-16.929683 3.7608,-8.08706 3.7498,-20.175544 -0.0254,-28.2949221 -5.1604,-11.0985 -14.45353,-18.4543719 -26.41602,-20.9101559 -1.86051,-0.381945 -3.74767,-0.579921 -5.64063,-0.607422 z M 683.68282,16.940932 c -0.84246,-0.01513 -1.78703,0.03186 -2.91015,0.125 -6.07013,0.503382 -11.50245,3.910501 -14.0293,8.796875 -1.86883,3.61393 -1.93508,11.030417 -0.13672,15.279301 3.64085,8.602019 14.77602,12.240099 23.63477,7.720699 4.87536,-2.487229 9.00195,-9.147849 9.00195,-14.525391 0,-5.99905 -3.4815,-12.08903 -8.63867,-15.111328 -2.78258,-1.630706 -4.39448,-2.239762 -6.92188,-2.285156 z m 340.74608,0.02344 c -1.2449,-0.001 -2.4928,0.105575 -3.6895,0.330078 -4.5981,0.862612 -11.0309,6.625047 -12.5566,11.248047 -2.4472,7.41509 0.9846,16.078174 8.0332,20.283203 4.5534,2.71645 13.7089,2.41074 17.7305,-0.5918 10.1348,-7.566759 10.2355,-21.104884 0.2128,-28.587887 -2.2794,-1.701877 -5.9956,-2.678556 -9.7304,-2.681641 z m -132.37694,2.351563 c -6.48749,-0.448222 -13.3171,1.944008 -18.54687,7.90039 -4.0068,4.56349 -5.59086,9.651248 -5.04687,16.210936 1.18301,14.265519 14.94233,23.461839 28.86328,19.291019 8.88034,-2.66062 15.29449,-11.37924 15.34179,-20.857419 0.0657,-13.162571 -9.79884,-21.797889 -20.61133,-22.544926 z m -77.96289,0.06836 c -11.46011,-0.09506 -22.88552,8.41903 -22.82226,22.193357 0.0404,8.799279 5.08652,16.461149 13.47656,20.458989 5.95815,2.83904 15.36413,2.00203 20.85547,-1.85743 10.65238,-7.48676 13.38989,-20.023739 6.68164,-30.601557 -4.42686,-6.980432 -11.31534,-10.136326 -18.19141,-10.193359 z m 39.07227,38.624996 c -3.69596,0.0947 -7.36704,2.287 -9.19922,6.53125 -0.90671,2.10041 -3.72308,10.25945 -6.25781,18.12891 -3.79688,11.788 -4.38658,14.5759 -3.3457,15.83008 0.81316,0.9798 2.17598,1.31957 3.82421,0.95312 1.40845,-0.31314 6.18866,-0.86129 10.62305,-1.21679 4.8319,-0.38737 10.80594,-0.16751 14.9082,0.54687 10.61351,1.848259 10.69957,1.564719 5.00586,-16.53711 -2.57515,-8.18707 -5.37252,-16.36796 -6.21484,-18.17969 -1.92845,-4.1479 -5.64779,-6.15133 -9.34375,-6.05664 z m 98.87109,5.93946 c -5.60074,0.25932 -11.20632,2.5328 -15.13086,6.49804 -4.012,4.05361 -5.74189,7.83077 -6.36914,13.90821 -0.44042,4.26732 -0.0675,6.30926 1.96289,10.74414 5.05379,11.038919 17.10718,15.883089 28.74414,11.552729 9.97389,-3.7115 15.94388,-15.879609 13.05468,-26.609369 -1.42361,-5.28694 -7.20724,-11.88278 -12.55077,-14.31641 -2.99284,-1.36305 -6.35049,-1.93294 -9.71094,-1.77734 z m -202.38671,0.0996 c -11.26561,0.71734 -19.40366,8.69033 -20.20704,19.79687 -0.50893,7.03593 1.01334,12.04282 5.06055,16.652339 6.80478,7.75021 17.42401,10.02891 26.24414,5.63086 7.98445,-3.98135 12.51172,-11.229619 12.47852,-19.978509 -0.0522,-13.76483 -9.87679,-22.97388 -23.57617,-22.10156 z m 269.42768,5.58984 c -6.4794,-0.0349 -8.653,0.42101 -14,2.9375 -7.64216,3.59667 -13.79566,9.38413 -17.54486,16.5 -2.5334,4.8082 -2.7852,6.23126 -2.7852,15.785159 0,9.43627 0.2701,11.0092 2.6582,15.5332 8.6319,16.35162 26.16966,23.49417 43.84176,17.85351 9.2238,-2.94407 18.0046,-11.71644 21.6485,-21.62695 2.144,-5.83135 2.1554,-17.064259 0.023,-23.259759 -3.411,-9.91227 -11.9051,-18.49183 -21.9101,-22.13086 -2.4015,-0.87343 -7.6089,-1.56853 -11.9317,-1.5918 z m -332.33003,1.72266 c -9.47596,0 -10.32773,0.17746 -16.26758,3.39843 -7.49965,4.0668 -12.52818,9.37203 -16.0957,16.98047 -2.19942,4.6907 -2.63672,7.02663 -2.63672,14.121099 0,7.21521 0.42336,9.40691 2.80078,14.5 8.61742,18.46096 29.05005,26.07438 47.19922,17.58789 7.29744,-3.41226 13.67722,-9.71199 17.29688,-17.08204 2.33113,-4.74644 2.70312,-6.74843 2.70312,-14.50585 0,-7.655909 -0.39705,-9.848179 -2.66015,-14.675789 -3.54946,-7.57163 -9.4874,-13.81266 -16.54493,-17.38867 -5.26078,-2.6656 -6.71489,-2.93554 -15.79492,-2.93554 z m 118.2207,7.8164 c -5.7556,-0.19191 -11.66359,3.1952 -13.625,10.29883 -1.32623,4.80323 0.29986,9.64582 4.46485,13.302729 2.82383,2.47936 4.40154,3.08204 8.07031,3.08204 2.52652,0 5.86573,-0.7712 7.48633,-1.72852 4.12075,-2.43418 7.18903,-9.125849 6.3164,-13.777339 -1.35338,-7.21415 -6.95728,-10.98583 -12.71289,-11.17774 z m 96.02539,0.0137 c -1.39778,0.16261 -2.82145,0.56092 -4.23242,1.23047 -4.96542,2.35624 -7.50476,6.68711 -7.50976,12.80664 -0.003,4.32331 0.4307,5.3018 3.8789,8.749999 3.4482,3.4482 4.42669,3.88221 8.75,3.87891 2.99678,-0.002 6.05103,-0.72649 7.94727,-1.88281 1.69401,-1.03301 3.88069,-3.56454 4.85937,-5.626959 4.68685,-9.87679 -3.90887,-20.29448 -13.69336,-19.15625 z m -47.74609,34.638679 c -8.1437,0 -16.28606,1.92163 -22.93555,5.76757 -29.75967,17.21244 -31.09994,60.23853 -2.45507,78.82813 11.60098,7.52866 26.96564,9.60366 39.67382,5.35742 19.66165,-6.56962 31.7168,-23.30144 31.7168,-44.01562 0,-16.9299 -8.51017,-31.75313 -23.0625,-40.16993 -6.64949,-3.84594 -14.79379,-5.76757 -22.9375,-5.76757 z m -72.41797,8.03125 c -18.11548,0 -19.33087,0.11852 -21.45312,2.0957 -4.91309,4.57723 -5.04806,10.73596 -0.33008,15.15234 5.24256,4.90743 27.71922,20.74487 29.09375,20.5 0.76605,-0.13647 1.74334,-0.92304 2.16992,-1.74804 0.42658,-0.825 1.44716,-5.19451 2.26758,-9.70899 0.86304,-4.74902 3.00351,-11.35256 5.08008,-15.66992 1.97401,-4.10415 3.31584,-8.17215 2.98242,-9.04102 -0.52333,-1.36378 -3.23151,-1.58007 -19.81055,-1.58007 z m 144.77539,0.0215 c -22.30096,-0.0259 -21.98619,-0.19145 -17.27734,9.13672 3.16461,6.26907 6.91992,19.18525 6.91992,23.80078 0,2.65464 1.58573,5.04102 3.34961,5.04102 0.52188,0 6.94044,-4.30304 14.26367,-9.5625 17.9584,-12.89752 20.55782,-16.32399 17.26953,-22.75391 -2.74086,-5.35948 -3.94727,-5.63821 -24.52539,-5.66211 z M 728.73165,139.3609 c -7.39293,0 -8.55573,0.27479 -12.38672,2.92968 -13.84274,9.59302 -12.97605,29.19588 1.67383,37.86719 4.17475,2.47101 5.54018,2.75904 11.72461,2.48242 5.97501,-0.26725 7.6857,-0.78597 11.67578,-3.54297 6.4768,-4.47524 10.24511,-12.14944 9.62696,-19.60351 -0.56645,-6.83064 -4.5836,-13.79858 -10.03516,-17.40625 -3.64245,-2.41046 -5.06939,-2.72656 -12.2793,-2.72656 z m 248.99999,0 c -7.39292,0 -8.55572,0.27479 -12.38671,2.92968 -13.84274,9.59302 -12.97605,29.19588 1.67383,37.86719 4.17475,2.47101 5.54018,2.75904 11.72458,2.48242 5.975,-0.26725 7.6857,-0.78597 11.6758,-3.54297 6.4768,-4.47524 10.24506,-12.14944 9.62696,-19.60351 -0.56646,-6.83064 -4.58356,-13.79858 -10.03516,-17.40625 -3.6424,-2.41046 -5.0694,-2.72656 -12.2793,-2.72656 z m 87.43746,0.74023 c -6.4278,0.0868 -12.2259,3.92423 -15.1562,10.54883 -3.4909,7.89167 -0.078,17.83889 7.3808,21.51367 4.1718,2.05543 12.0321,2.17121 15.7813,0.23242 13.258,-6.85598 12.3729,-25.81619 -1.4512,-31.0957 -2.1999,-0.84015 -4.4121,-1.22816 -6.5547,-1.19922 z m -423.49409,0.008 c -5.51899,0.16753 -11.06987,2.9835 -14.49414,9.07617 -4.22103,7.51031 -1.22381,18.09142 6.45117,22.77149 4.53316,2.76423 13.30681,2.59191 17.62305,-0.3457 5.17557,-3.52246 7.26771,-7.06753 7.77344,-13.16602 0.95662,-11.53556 -8.15521,-18.61515 -17.35352,-18.33594 z m 133.51758,31.88281 c -6.24002,0.59921 -11.93794,5.66792 -11.94531,13.16797 -0.0107,10.86924 11.29452,17.30222 20.09961,11.4375 7.5321,-5.01684 8.62839,-13.78631 2.55273,-20.41601 -3.02389,-3.29964 -6.96302,-4.54898 -10.70703,-4.18946 z m 153.33594,0.0801 c -8.24906,1.20422 -14.95315,10.30843 -10.58203,18.76953 3.77116,7.29975 12.43251,10.06338 18.99414,6.0625 4.53294,-2.76391 6.4707,-6.22028 6.4707,-11.54296 0,-5.32268 -1.93776,-8.78102 -6.4707,-11.54493 -2.73984,-1.67058 -5.66243,-2.14554 -8.41211,-1.74414 z m 91.47657,5.32618 c -13.0802,-0.12041 -25.61086,7.46588 -32.08396,19.92578 -2.8279,5.44333 -3.1378,6.92164 -3.1563,15.03711 -0.0179,7.83165 0.3537,9.80938 2.8594,15.23437 7.9629,17.24 26.99296,24.81354 45.36716,18.05469 6.9717,-2.56451 15.0797,-10.09905 18.7832,-17.45313 2.5968,-5.15652 2.9395,-6.88488 2.9531,-14.83593 0.013,-7.8253 -0.3596,-9.81379 -2.8633,-15.23438 -4.934,-10.68238 -14.5369,-18.07578 -26.2363,-20.19727 -1.875,-0.34 -3.7545,-0.51404 -5.623,-0.53124 z m -333.8672,0.10546 c -11.96317,0.35617 -23.59341,6.68951 -29.76758,18.27344 -9.63451,18.0762 -3.13748,39.45627 14.74414,48.51758 9.94839,5.04123 20.50976,5.23499 30.78126,0.5625 22.3475,-10.16584 27.69887,-39.64487 10.34765,-56.99609 -7.29581,-7.29581 -16.80078,-10.63444 -26.10547,-10.35743 z m 218.00391,20.35743 c -0.47186,0 -4.23722,3.07899 -8.36719,6.84375 -4.12997,3.76475 -10.44098,8.33398 -14.02344,10.15234 -7.21322,3.66124 -8.80652,5.08295 -7.99218,7.12695 0.30167,0.75721 4.88913,4.52696 10.19531,8.37696 21.64806,15.70717 22.39407,16.04781 28.31055,12.98828 6.48402,-3.35302 6.46653,-7.29646 -0.11914,-27.41407 -4.97619,-15.20101 -6.24877,-18.07421 -8.00391,-18.07421 z m -101.5625,0.44726 c -0.44463,-0.0882 -0.79706,-0.0139 -1.11328,0.18555 -2.03054,1.28083 -12.22872,31.66302 -12.19922,36.34375 0.0504,7.98594 8.49147,12.44938 15.47656,8.18359 5.99301,-3.65992 27.02247,-19.38081 27.83008,-20.80469 1.19295,-2.10326 -0.47252,-3.66191 -7.99805,-7.49023 -3.65615,-1.85993 -9.94849,-6.46757 -14.0664,-10.30078 -4.43973,-4.13279 -6.59581,-5.8526 -7.92969,-6.11719 z m -46.16797,13.71875 c -3.29819,-0.20806 -6.75032,0.36856 -10.16797,1.91797 -8.73757,3.96124 -13.26504,10.69989 -13.38086,19.91602 -0.12433,9.89381 5.70881,18.21056 15.12891,21.57226 4.66162,1.66357 7.17465,1.7286 12.75195,0.32422 5.5089,-1.38716 12.21024,-7.04693 14.61524,-12.3418 6.75379,-14.86919 -4.6551,-30.48705 -18.94727,-31.38867 z m 198.68164,0.0117 c -14.27519,0.92057 -25.68999,16.56493 -18.94531,31.41602 2.09336,4.60937 8.19058,10.18137 13.23437,12.0957 5.1746,1.96398 13.35384,0.91229 18.72461,-2.4082 6.81549,-4.21371 10.51639,-10.77415 10.49419,-18.60157 -0.0281,-9.88627 -4.3148,-16.49617 -13.35747,-20.5957 -3.41095,-1.54638 -6.85612,-2.11869 -10.15039,-1.90625 z M 851.8879,229.94898 c -4.61906,0.34188 -9.05597,2.87352 -11.20703,7.0332 -5.58014,10.79082 6.80458,23.96635 17.36328,18.47266 9.92683,-5.16492 10.96682,-18.10665 1.90039,-23.63477 -2.44958,-1.4936 -5.2852,-2.07622 -8.05664,-1.87109 z m 41.07422,23.93359 c -15.13229,-0.0695 -26.30069,14.97886 -21.58008,29.07813 4.60089,13.74167 20.15415,19.57156 32.68946,12.25195 5.20526,-3.03946 9.83897,-9.9443 10.75,-16.01953 1.91261,-12.75418 -8.87982,-25.25095 -21.85938,-25.31055 z m -75.63867,0.13281 c -11.99116,-0.80775 -24.12038,8.39267 -24.05273,22.84571 0.0321,6.85768 5.36341,15.5724 11.46679,18.74609 6.59627,3.42998 11.77269,3.96205 17.75781,1.82617 15.42614,-5.50505 20.4171,-23.42067 9.93555,-35.66601 -4.23591,-4.94872 -9.65689,-7.3848 -15.10742,-7.75196 z m 210.41985,11.90235 c -7.0186,0 -14.0365,4.32903 -16.6308,12.98828 -2.0241,6.75588 1.592,14.82578 8.5429,19.06445 3.6467,2.22369 10.2951,2.45698 14.918,0.52539 7.2378,-3.02412 11.9467,-12.43402 9.8027,-19.58984 -2.5943,-8.65925 -9.6141,-12.98828 -16.6328,-12.98828 z m -341.56438,0.0898 c -8.87677,-0.31063 -17.90235,6.1244 -17.90235,16.85352 0,12.41621 13.31835,20.7238 24.62305,15.35937 8.46212,-4.01553 11.91331,-15.58008 7.11524,-23.83984 -3.23711,-5.5726 -8.50988,-8.18667 -13.83594,-8.37305 z m 65.06445,0.35742 c -10.57573,-0.004 -15.56583,1.64241 -22.92773,7.5586 -8.43851,6.78136 -13.68721,19.08288 -12.70899,29.78515 2.24289,24.53822 28.13962,40.01485 49.80469,29.76563 7.78477,-3.68279 12.99216,-8.56068 16.85156,-15.78711 2.90581,-5.44091 3.43373,-7.51545 3.77539,-14.82617 0.32475,-6.94858 0.002,-9.55027 -1.76953,-14.24805 -2.84749,-7.5529 -10.42843,-15.82188 -17.83398,-19.45313 -5.01122,-2.45721 -6.82492,-2.79192 -15.19141,-2.79492 z m 205,0.0293 c -8.30864,0.0289 -10.19776,0.37673 -15.07422,2.7832 -19.24643,9.49787 -25.722,33.46489 -14.01758,51.88477 8.78349,13.82307 28.37189,19.37934 43.6875,12.39258 7.71467,-3.51931 14.55277,-10.33241 18.05077,-17.98438 2.3731,-5.19118 2.789,-7.38805 2.7617,-14.60937 -0.0265,-6.99515 -0.4951,-9.50957 -2.6425,-14.19922 -3.3111,-7.23076 -10.2617,-14.2059 -17.5684,-17.63086 -4.94509,-2.31796 -6.95039,-2.66542 -15.19727,-2.63672 z M 852.02853,298.8923 c -9.99633,-0.46327 -20.17377,3.33073 -27.6543,11.51562 -7.09625,7.76443 -9.44535,14.49112 -8.89258,25.45313 0.49459,9.80827 2.70574,15.38153 8.89258,22.41015 3.86397,4.3897 11.76643,9.04004 18.15039,10.68164 5.54218,1.42514 16.32288,0.23676 22.18555,-2.44726 7.5969,-3.47797 13.95684,-9.72836 17.75781,-17.44922 5.70159,-11.58157 4.20387,-25.55852 -3.87305,-36.13477 -6.75447,-8.84459 -16.57008,-13.56603 -26.5664,-14.02929 z m -66.08594,46.96093 c -3.9694,0.0366 -8.43353,1.33053 -11.19336,3.43555 -4.58583,3.49778 -6.73633,7.83054 -6.73633,13.57227 0,13.5133 14.03259,21.40801 25.79688,14.51367 7.12457,-4.17524 10.22727,-13.28955 7.08398,-20.8125 -1.60983,-3.85286 -7.67123,-9.41773 -11.22851,-10.31055 -1.13154,-0.284 -2.39953,-0.41064 -3.72266,-0.39844 z m 129.70508,0.008 c -10.74073,0 -19.4911,11.08902 -16.53516,20.95507 1.47269,4.9154 5.56854,9.89051 9.58203,11.63868 4.02986,1.7553 10.98563,1.75339 14.34961,-0.004 v -0.002 c 4.21762,-2.20339 7.90079,-6.69647 9.25196,-11.28907 3.06505,-10.41803 -5.44001,-21.29882 -16.64844,-21.29882 z" />
        </g>
      </g>
    </clipPath>
    <clipPath
       clipPathUnits="userSpaceOnUse"
       id="clipPath1535">
      <rect
         style="fill:#ffd42a"
         id="rect1537"
         width="464.57877"
         height="446.51736"
         x="18.061369"
         y="14.04774" />
    </clipPath>
  </defs>
  <sodipodi:namedview
     id="namedview11"
     pagecolor="#ffffff"
     bordercolor="#666666"
     borderopacity="1.0"
     inkscape:pageshadow="2"
     inkscape:pageopacity="0.0"
     inkscape:pagecheckerboard="0"
     showgrid="false"
     inkscape:zoom="0.49830086"
     inkscape:cx="388.31962"
     inkscape:cy="177.60355"
     inkscape:window-width="1600"
     inkscape:window-height="837"
     inkscape:window-x="-8"
     inkscape:window-y="-8"
     inkscape:window-maximized="1"
     inkscape:current-layer="g15" />
  <g
     inkscape:groupmode="layer"
     inkscape:label="Image"
     id="g15">
    <g
       id="g1583"
       clip-path="url(#clipPath1195)"
       transform="translate(-600.70475,77.485959)"
       style="fill:#ffd42a">
      <path
         id="path1581"
         style="fill:#ffd42a;stroke-width:1"
         d="M 1102.2433,-72.139146 V 214.86086 397.35109 h 0.1992 V -72.139146 Z m 0,469.490236 H 602.24337 v 104.50977 h 250 249.99993 z M 788.3547,-60.094224 c -7.4813,-0.339163 -14.79584,4.357392 -17.12305,13 -1.97268,7.325957 2.46931,16.502612 9.46289,19.548828 4.06162,1.769129 10.98743,1.748198 14.45118,-0.04297 10.26564,-5.308572 13.07017,-17.956894 5.81445,-26.220703 -3.56828,-4.064038 -8.11669,-6.081659 -12.60547,-6.285155 z m 130.38867,0.01172 c -7.01864,0 -14.03648,4.329033 -16.63086,12.988281 -3.88846,12.978534 10.51034,25.000948 23.46094,19.589843 7.23775,-3.024124 11.94667,-12.43402 9.80273,-19.589843 -2.59437,-8.659248 -9.61417,-12.988281 -16.63281,-12.988281 z m -65.45312,9.064452 c -8.67129,-0.134162 -17.06889,3.080685 -23.96875,9.46875 -3.68972,3.416025 -7.07464,7.741245 -8.78907,11.232422 -2.45678,5.00277 -2.78906,6.806849 -2.78906,15.177735 0,8.4506952 0.31211,10.1074932 2.81836,15.00000018 9.5938,18.72823082 29.65132,25.54434982 48.37891,16.44140582 26.4826,-12.8724268 26.47547,-50.386156 -0.0117,-63.425781 -5.13471,-2.527809 -10.4359,-3.814034 -15.63867,-3.894532 z M 751.134,-17.943834 c -1.92518,-0.06362 -3.83411,0.184973 -6.69922,0.712891 -8.29869,1.529094 -15.05474,5.135343 -20.31836,10.8457029 -17.64567,19.1432921 -9.92948,48.9562981 14.97265,57.8515571 5.86277,2.09424 17.18052,1.73089 23.86719,-0.76757 8.07992,-3.019039 17.12709,-12.118979 20.2207,-20.337893 3.02416,-8.034381 2.61033,-20.7041901 -0.89843,-27.5000001 -5.49822,-10.649033 -13.27377,-16.9236949 -24.35157,-19.6464849 -2.92649,-0.719298 -4.86779,-1.094587 -6.79296,-1.158203 z m 204.87109,0.111328 c -13.25074,-0.192504 -26.73553,8.0064479 -32.5957,20.5078129 -2.30113,4.908962 -2.66472,6.983133 -2.66407,15.1855471 8.8e-4,11.158115 1.81163,16.128049 8.53125,23.417964 8.13347,8.823779 15.28357,11.706849 27.9668,11.271489 7.41586,-0.25456 9.30069,-0.71985 14.76953,-3.64063 7.49074,-4.000649 12.53024,-9.308869 16.07424,-16.929683 3.7608,-8.08706 3.7498,-20.175544 -0.0254,-28.2949221 -5.1604,-11.0985 -14.45353,-18.4543719 -26.41602,-20.9101559 -1.86051,-0.381945 -3.74767,-0.579921 -5.64063,-0.607422 z M 683.68282,16.940932 c -0.84246,-0.01513 -1.78703,0.03186 -2.91015,0.125 -6.07013,0.503382 -11.50245,3.910501 -14.0293,8.796875 -1.86883,3.61393 -1.93508,11.030417 -0.13672,15.279301 3.64085,8.602019 14.77602,12.240099 23.63477,7.720699 4.87536,-2.487229 9.00195,-9.147849 9.00195,-14.525391 0,-5.99905 -3.4815,-12.08903 -8.63867,-15.111328 -2.78258,-1.630706 -4.39448,-2.239762 -6.92188,-2.285156 z m 340.74608,0.02344 c -1.2449,-0.001 -2.4928,0.105575 -3.6895,0.330078 -4.5981,0.862612 -11.0309,6.625047 -12.5566,11.248047 -2.4472,7.41509 0.9846,16.078174 8.0332,20.283203 4.5534,2.71645 13.7089,2.41074 17.7305,-0.5918 10.1348,-7.566759 10.2355,-21.104884 0.2128,-28.587887 -2.2794,-1.701877 -5.9956,-2.678556 -9.7304,-2.681641 z m -132.37694,2.351563 c -6.48749,-0.448222 -13.3171,1.944008 -18.54687,7.90039 -4.0068,4.56349 -5.59086,9.651248 -5.04687,16.210936 1.18301,14.265519 14.94233,23.461839 28.86328,19.291019 8.88034,-2.66062 15.29449,-11.37924 15.34179,-20.857419 0.0657,-13.162571 -9.79884,-21.797889 -20.61133,-22.544926 z m -77.96289,0.06836 c -11.46011,-0.09506 -22.88552,8.41903 -22.82226,22.193357 0.0404,8.799279 5.08652,16.461149 13.47656,20.458989 5.95815,2.83904 15.36413,2.00203 20.85547,-1.85743 10.65238,-7.48676 13.38989,-20.023739 6.68164,-30.601557 -4.42686,-6.980432 -11.31534,-10.136326 -18.19141,-10.193359 z m 39.07227,38.624996 c -3.69596,0.0947 -7.36704,2.287 -9.19922,6.53125 -0.90671,2.10041 -3.72308,10.25945 -6.25781,18.12891 -3.79688,11.788 -4.38658,14.5759 -3.3457,15.83008 0.81316,0.9798 2.17598,1.31957 3.82421,0.95312 1.40845,-0.31314 6.18866,-0.86129 10.62305,-1.21679 4.8319,-0.38737 10.80594,-0.16751 14.9082,0.54687 10.61351,1.848259 10.69957,1.564719 5.00586,-16.53711 -2.57515,-8.18707 -5.37252,-16.36796 -6.21484,-18.17969 -1.92845,-4.1479 -5.64779,-6.15133 -9.34375,-6.05664 z m 98.87109,5.93946 c -5.60074,0.25932 -11.20632,2.5328 -15.13086,6.49804 -4.012,4.05361 -5.74189,7.83077 -6.36914,13.90821 -0.44042,4.26732 -0.0675,6.30926 1.96289,10.74414 5.05379,11.038919 17.10718,15.883089 28.74414,11.552729 9.97389,-3.7115 15.94388,-15.879609 13.05468,-26.609369 -1.42361,-5.28694 -7.20724,-11.88278 -12.55077,-14.31641 -2.99284,-1.36305 -6.35049,-1.93294 -9.71094,-1.77734 z m -202.38671,0.0996 c -11.26561,0.71734 -19.40366,8.69033 -20.20704,19.79687 -0.50893,7.03593 1.01334,12.04282 5.06055,16.652339 6.80478,7.75021 17.42401,10.02891 26.24414,5.63086 7.98445,-3.98135 12.51172,-11.229619 12.47852,-19.978509 -0.0522,-13.76483 -9.87679,-22.97388 -23.57617,-22.10156 z m 269.42768,5.58984 c -6.4794,-0.0349 -8.653,0.42101 -14,2.9375 -7.64216,3.59667 -13.79566,9.38413 -17.54486,16.5 -2.5334,4.8082 -2.7852,6.23126 -2.7852,15.785159 0,9.43627 0.2701,11.0092 2.6582,15.5332 8.6319,16.35162 26.16966,23.49417 43.84176,17.85351 9.2238,-2.94407 18.0046,-11.71644 21.6485,-21.62695 2.144,-5.83135 2.1554,-17.064259 0.023,-23.259759 -3.411,-9.91227 -11.9051,-18.49183 -21.9101,-22.13086 -2.4015,-0.87343 -7.6089,-1.56853 -11.9317,-1.5918 z m -332.33003,1.72266 c -9.47596,0 -10.32773,0.17746 -16.26758,3.39843 -7.49965,4.0668 -12.52818,9.37203 -16.0957,16.98047 -2.19942,4.6907 -2.63672,7.02663 -2.63672,14.121099 0,7.21521 0.42336,9.40691 2.80078,14.5 8.61742,18.46096 29.05005,26.07438 47.19922,17.58789 7.29744,-3.41226 13.67722,-9.71199 17.29688,-17.08204 2.33113,-4.74644 2.70312,-6.74843 2.70312,-14.50585 0,-7.655909 -0.39705,-9.848179 -2.66015,-14.675789 -3.54946,-7.57163 -9.4874,-13.81266 -16.54493,-17.38867 -5.26078,-2.6656 -6.71489,-2.93554 -15.79492,-2.93554 z m 118.2207,7.8164 c -5.7556,-0.19191 -11.66359,3.1952 -13.625,10.29883 -1.32623,4.80323 0.29986,9.64582 4.46485,13.302729 2.82383,2.47936 4.40154,3.08204 8.07031,3.08204 2.52652,0 5.86573,-0.7712 7.48633,-1.72852 4.12075,-2.43418 7.18903,-9.125849 6.3164,-13.777339 -1.35338,-7.21415 -6.95728,-10.98583 -12.71289,-11.17774 z m 96.02539,0.0137 c -1.39778,0.16261 -2.82145,0.56092 -4.23242,1.23047 -4.96542,2.35624 -7.50476,6.68711 -7.50976,12.80664 -0.003,4.32331 0.4307,5.3018 3.8789,8.749999 3.4482,3.4482 4.42669,3.88221 8.75,3.87891 2.99678,-0.002 6.05103,-0.72649 7.94727,-1.88281 1.69401,-1.03301 3.88069,-3.56454 4.85937,-5.626959 4.68685,-9.87679 -3.90887,-20.29448 -13.69336,-19.15625 z m -47.74609,34.638679 c -8.1437,0 -16.28606,1.92163 -22.93555,5.76757 -29.75967,17.21244 -31.09994,60.23853 -2.45507,78.82813 11.60098,7.52866 26.96564,9.60366 39.67382,5.35742 19.66165,-6.56962 31.7168,-23.30144 31.7168,-44.01562 0,-16.9299 -8.51017,-31.75313 -23.0625,-40.16993 -6.64949,-3.84594 -14.79379,-5.76757 -22.9375,-5.76757 z m -72.41797,8.03125 c -18.11548,0 -19.33087,0.11852 -21.45312,2.0957 -4.91309,4.57723 -5.04806,10.73596 -0.33008,15.15234 5.24256,4.90743 27.71922,20.74487 29.09375,20.5 0.76605,-0.13647 1.74334,-0.92304 2.16992,-1.74804 0.42658,-0.825 1.44716,-5.19451 2.26758,-9.70899 0.86304,-4.74902 3.00351,-11.35256 5.08008,-15.66992 1.97401,-4.10415 3.31584,-8.17215 2.98242,-9.04102 -0.52333,-1.36378 -3.23151,-1.58007 -19.81055,-1.58007 z m 144.77539,0.0215 c -22.30096,-0.0259 -21.98619,-0.19145 -17.27734,9.13672 3.16461,6.26907 6.91992,19.18525 6.91992,23.80078 0,2.65464 1.58573,5.04102 3.34961,5.04102 0.52188,0 6.94044,-4.30304 14.26367,-9.5625 17.9584,-12.89752 20.55782,-16.32399 17.26953,-22.75391 -2.74086,-5.35948 -3.94727,-5.63821 -24.52539,-5.66211 z M 728.73165,139.3609 c -7.39293,0 -8.55573,0.27479 -12.38672,2.92968 -13.84274,9.59302 -12.97605,29.19588 1.67383,37.86719 4.17475,2.47101 5.54018,2.75904 11.72461,2.48242 5.97501,-0.26725 7.6857,-0.78597 11.67578,-3.54297 6.4768,-4.47524 10.24511,-12.14944 9.62696,-19.60351 -0.56645,-6.83064 -4.5836,-13.79858 -10.03516,-17.40625 -3.64245,-2.41046 -5.06939,-2.72656 -12.2793,-2.72656 z m 248.99999,0 c -7.39292,0 -8.55572,0.27479 -12.38671,2.92968 -13.84274,9.59302 -12.97605,29.19588 1.67383,37.86719 4.17475,2.47101 5.54018,2.75904 11.72458,2.48242 5.975,-0.26725 7.6857,-0.78597 11.6758,-3.54297 6.4768,-4.47524 10.24506,-12.14944 9.62696,-19.60351 -0.56646,-6.83064 -4.58356,-13.79858 -10.03516,-17.40625 -3.6424,-2.41046 -5.0694,-2.72656 -12.2793,-2.72656 z m 87.43746,0.74023 c -6.4278,0.0868 -12.2259,3.92423 -15.1562,10.54883 -3.4909,7.89167 -0.078,17.83889 7.3808,21.51367 4.1718,2.05543 12.0321,2.17121 15.7813,0.23242 13.258,-6.85598 12.3729,-25.81619 -1.4512,-31.0957 -2.1999,-0.84015 -4.4121,-1.22816 -6.5547,-1.19922 z m -423.49409,0.008 c -5.51899,0.16753 -11.06987,2.9835 -14.49414,9.07617 -4.22103,7.51031 -1.22381,18.09142 6.45117,22.77149 4.53316,2.76423 13.30681,2.59191 17.62305,-0.3457 5.17557,-3.52246 7.26771,-7.06753 7.77344,-13.16602 0.95662,-11.53556 -8.15521,-18.61515 -17.35352,-18.33594 z m 133.51758,31.88281 c -6.24002,0.59921 -11.93794,5.66792 -11.94531,13.16797 -0.0107,10.86924 11.29452,17.30222 20.09961,11.4375 7.5321,-5.01684 8.62839,-13.78631 2.55273,-20.41601 -3.02389,-3.29964 -6.96302,-4.54898 -10.70703,-4.18946 z m 153.33594,0.0801 c -8.24906,1.20422 -14.95315,10.30843 -10.58203,18.76953 3.77116,7.29975 12.43251,10.06338 18.99414,6.0625 4.53294,-2.76391 6.4707,-6.22028 6.4707,-11.54296 0,-5.32268 -1.93776,-8.78102 -6.4707,-11.54493 -2.73984,-1.67058 -5.66243,-2.14554 -8.41211,-1.74414 z m 91.47657,5.32618 c -13.0802,-0.12041 -25.61086,7.46588 -32.08396,19.92578 -2.8279,5.44333 -3.1378,6.92164 -3.1563,15.03711 -0.0179,7.83165 0.3537,9.80938 2.8594,15.23437 7.9629,17.24 26.99296,24.81354 45.36716,18.05469 6.9717,-2.56451 15.0797,-10.09905 18.7832,-17.45313 2.5968,-5.15652 2.9395,-6.88488 2.9531,-14.83593 0.013,-7.8253 -0.3596,-9.81379 -2.8633,-15.23438 -4.934,-10.68238 -14.5369,-18.07578 -26.2363,-20.19727 -1.875,-0.34 -3.7545,-0.51404 -5.623,-0.53124 z m -333.8672,0.10546 c -11.96317,0.35617 -23.59341,6.68951 -29.76758,18.27344 -9.63451,18.0762 -3.13748,39.45627 14.74414,48.51758 9.94839,5.04123 20.50976,5.23499 30.78126,0.5625 22.3475,-10.16584 27.69887,-39.64487 10.34765,-56.99609 -7.29581,-7.29581 -16.80078,-10.63444 -26.10547,-10.35743 z m 218.00391,20.35743 c -0.47186,0 -4.23722,3.07899 -8.36719,6.84375 -4.12997,3.76475 -10.44098,8.33398 -14.02344,10.15234 -7.21322,3.66124 -8.80652,5.08295 -7.99218,7.12695 0.30167,0.75721 4.88913,4.52696 10.19531,8.37696 21.64806,15.70717 22.39407,16.04781 28.31055,12.98828 6.48402,-3.35302 6.46653,-7.29646 -0.11914,-27.41407 -4.97619,-15.20101 -6.24877,-18.07421 -8.00391,-18.07421 z m -101.5625,0.44726 c -0.44463,-0.0882 -0.79706,-0.0139 -1.11328,0.18555 -2.03054,1.28083 -12.22872,31.66302 -12.19922,36.34375 0.0504,7.98594 8.49147,12.44938 15.47656,8.18359 5.99301,-3.65992 27.02247,-19.38081 27.83008,-20.80469 1.19295,-2.10326 -0.47252,-3.66191 -7.99805,-7.49023 -3.65615,-1.85993 -9.94849,-6.46757 -14.0664,-10.30078 -4.43973,-4.13279 -6.59581,-5.8526 -7.92969,-6.11719 z m -46.16797,13.71875 c -3.29819,-0.20806 -6.75032,0.36856 -10.16797,1.91797 -8.73757,3.96124 -13.26504,10.69989 -13.38086,19.91602 -0.12433,9.89381 5.70881,18.21056 15.12891,21.57226 4.66162,1.66357 7.17465,1.7286 12.75195,0.32422 5.5089,-1.38716 12.21024,-7.04693 14.61524,-12.3418 6.75379,-14.86919 -4.6551,-30.48705 -18.94727,-31.38867 z m 198.68164,0.0117 c -14.27519,0.92057 -25.68999,16.56493 -18.94531,31.41602 2.09336,4.60937 8.19058,10.18137 13.23437,12.0957 5.1746,1.96398 13.35384,0.91229 18.72461,-2.4082 6.81549,-4.21371 10.51639,-10.77415 10.49419,-18.60157 -0.0281,-9.88627 -4.3148,-16.49617 -13.35747,-20.5957 -3.41095,-1.54638 -6.85612,-2.11869 -10.15039,-1.90625 z M 851.8879,229.94898 c -4.61906,0.34188 -9.05597,2.87352 -11.20703,7.0332 -5.58014,10.79082 6.80458,23.96635 17.36328,18.47266 9.92683,-5.16492 10.96682,-18.10665 1.90039,-23.63477 -2.44958,-1.4936 -5.2852,-2.07622 -8.05664,-1.87109 z m 41.07422,23.93359 c -15.13229,-0.0695 -26.30069,14.97886 -21.58008,29.07813 4.60089,13.74167 20.15415,19.57156 32.68946,12.25195 5.20526,-3.03946 9.83897,-9.9443 10.75,-16.01953 1.91261,-12.75418 -8.87982,-25.25095 -21.85938,-25.31055 z m -75.63867,0.13281 c -11.99116,-0.80775 -24.12038,8.39267 -24.05273,22.84571 0.0321,6.85768 5.36341,15.5724 11.46679,18.74609 6.59627,3.42998 11.77269,3.96205 17.75781,1.82617 15.42614,-5.50505 20.4171,-23.42067 9.93555,-35.66601 -4.23591,-4.94872 -9.65689,-7.3848 -15.10742,-7.75196 z m 210.41985,11.90235 c -7.0186,0 -14.0365,4.32903 -16.6308,12.98828 -2.0241,6.75588 1.592,14.82578 8.5429,19.06445 3.6467,2.22369 10.2951,2.45698 14.918,0.52539 7.2378,-3.02412 11.9467,-12.43402 9.8027,-19.58984 -2.5943,-8.65925 -9.6141,-12.98828 -16.6328,-12.98828 z m -341.56438,0.0898 c -8.87677,-0.31063 -17.90235,6.1244 -17.90235,16.85352 0,12.41621 13.31835,20.7238 24.62305,15.35937 8.46212,-4.01553 11.91331,-15.58008 7.11524,-23.83984 -3.23711,-5.5726 -8.50988,-8.18667 -13.83594,-8.37305 z m 65.06445,0.35742 c -10.57573,-0.004 -15.56583,1.64241 -22.92773,7.5586 -8.43851,6.78136 -13.68721,19.08288 -12.70899,29.78515 2.24289,24.53822 28.13962,40.01485 49.80469,29.76563 7.78477,-3.68279 12.99216,-8.56068 16.85156,-15.78711 2.90581,-5.44091 3.43373,-7.51545 3.77539,-14.82617 0.32475,-6.94858 0.002,-9.55027 -1.76953,-14.24805 -2.84749,-7.5529 -10.42843,-15.82188 -17.83398,-19.45313 -5.01122,-2.45721 -6.82492,-2.79192 -15.19141,-2.79492 z m 205,0.0293 c -8.30864,0.0289 -10.19776,0.37673 -15.07422,2.7832 -19.24643,9.49787 -25.722,33.46489 -14.01758,51.88477 8.78349,13.82307 28.37189,19.37934 43.6875,12.39258 7.71467,-3.51931 14.55277,-10.33241 18.05077,-17.98438 2.3731,-5.19118 2.789,-7.38805 2.7617,-14.60937 -0.0265,-6.99515 -0.4951,-9.50957 -2.6425,-14.19922 -3.3111,-7.23076 -10.2617,-14.2059 -17.5684,-17.63086 -4.94509,-2.31796 -6.95039,-2.66542 -15.19727,-2.63672 z M 852.02853,298.8923 c -9.99633,-0.46327 -20.17377,3.33073 -27.6543,11.51562 -7.09625,7.76443 -9.44535,14.49112 -8.89258,25.45313 0.49459,9.80827 2.70574,15.38153 8.89258,22.41015 3.86397,4.3897 11.76643,9.04004 18.15039,10.68164 5.54218,1.42514 16.32288,0.23676 22.18555,-2.44726 7.5969,-3.47797 13.95684,-9.72836 17.75781,-17.44922 5.70159,-11.58157 4.20387,-25.55852 -3.87305,-36.13477 -6.75447,-8.84459 -16.57008,-13.56603 -26.5664,-14.02929 z m -66.08594,46.96093 c -3.9694,0.0366 -8.43353,1.33053 -11.19336,3.43555 -4.58583,3.49778 -6.73633,7.83054 -6.73633,13.57227 0,13.5133 14.03259,21.40801 25.79688,14.51367 7.12457,-4.17524 10.22727,-13.28955 7.08398,-20.8125 -1.60983,-3.85286 -7.67123,-9.41773 -11.22851,-10.31055 -1.13154,-0.284 -2.39953,-0.41064 -3.72266,-0.39844 z m 129.70508,0.008 c -10.74073,0 -19.4911,11.08902 -16.53516,20.95507 1.47269,4.9154 5.56854,9.89051 9.58203,11.63868 4.02986,1.7553 10.98563,1.75339 14.34961,-0.004 v -0.002 c 4.21762,-2.20339 7.90079,-6.69647 9.25196,-11.28907 3.06505,-10.41803 -5.44001,-21.29882 -16.64844,-21.29882 z" />
    </g>
  </g>
</svg>
